#Unknown ASF file
:ROOT_YZX
:FOOT_3DOF
:FULLY-SPECIFIED
:DEGREES
993
root 10.1653 17.9928 -31.551 -5.56259 74.5467 0.769588
lfemur -8.53192 0.29129 -18.7913
ltibia 30.0087
lfoot -11.7578 0 -6.51501
ltoes -17.0957
rfemur -8.38177 -4.91793 14.5604
rtibia 66.3735
rfoot 12.3084 0 -3.55996
rtoes -3.82199
lowerback 9.94962 2.14814 -3.15984
upperback 2.27963 2.58811 0.0474265
thorax -3.34081 1.33456 1.49414
lowerneck -2.49067 -14.1734 -23.261
upperneck 13.0163 -20.9397 21.6307
head 9.40055 -10.0209 8.62548
lclavicle -2.96872e-014 1.37161e-014
lhumerus -35.7483 15.2153 72.2103
lradius 23.3749
lwrist -4.49348
lhand -13.1276 30.9139
lfingers 7.12502
lthumb 12.9702 60.4907
rclavicle -2.96872e-014 1.37161e-014
rhumerus -31.6243 -11.8782 -81.0639
rradius 27.1664
rwrist 6.87838
rhand -19.8756 14.6527
rfingers 7.12502
rthumb 6.45988 -15.2288
994
root 10.3841 17.9747 -31.6148 -5.24904 71.4121 1.41753
lfemur -7.88506 1.29426 -19.8517
ltibia 30.2057
lfoot -12.5548 0 -4.08033
ltoes -17.9516
rfemur -11.1274 -7.27174 13.739
rtibia 68.0222
rfoot 0.450231 0 -8.684
rtoes -1.5834
lowerback 9.33293 1.69364 -3.41219
upperback 2.68906 1.98817 -0.242434
thorax -2.54153 1.02511 1.43835
lowerneck -3.16204 -13.8826 -22.7565
upperneck 13.1943 -20.423 21.4092
head 9.36527 -9.72647 8.53759
lclavicle 1.25483e-015 -1.14301e-014
lhumerus -33.9785 17.7506 70.103
lradius 22.8985
lwrist -5.55393
lhand -13.5032 30.8213
lfingers 7.12502
lthumb 12.6081 60.4208
rclavicle 1.25483e-015 -1.14301e-014
rhumerus -31.1585 -8.59275 -82.5802
rradius 28.4207
rwrist 3.05511
rhand -20.2352 13.7713
rfingers 7.12502
rthumb 6.1127 -16.1206
995
root 10.5573 17.9393 -31.6041 -5.51179 68.4107 1.63209
lfemur -6.97616 3.00303 -19.9566
ltibia 31.0135
lfoot -13.7701 0 -2.65344
ltoes -18.8003
rfemur -12.4409 -10.1836 13.7858
rtibia 66.8652
rfoot -6.7059 0 -11.7212
rtoes -3.3993
lowerback 9.28835 1.4967 -5.68091
upperback 3.19812 1.57694 1.08221
thorax -2.05393 0.802908 4.14924
lowerneck -3.55159 -13.7286 -25.2409
upperneck 13.349 -20.0405 21.8458
head 9.741 -9.6349 9.14139
lclavicle 2.06612e-014 -5.96354e-016
lhumerus -32.6145 19.8003 70.4536
lradius 22.6717
lwrist -5.24564
lhand -14.3722 31.2308
lfingers 7.12502
lthumb 11.7702 60.8801
rclavicle 2.06612e-014 -5.96354e-016
rhumerus -30.2666 -5.9393 -81.4793
rradius 29.261
rwrist 1.77372
rhand -19.4265 13.7153
rfingers 7.12502
rthumb 6.89347 -16.1524
996
root 10.7227 17.8586 -31.655 -5.30387 65.4119 2.16146
lfemur -6.86049 4.60676 -20.7525
ltibia 31.9242
lfoot -14.7666 0 -0.948864
ltoes -19.5467
rfemur -14.0148 -12.1617 14.0588
rtibia 64.133
rfoot -12.2192 0 -14.1302
rtoes -9.49197
lowerback 9.71538 1.36304 -5.85447
upperback 2.79558 1.32971 0.865679
thorax -2.67994 0.702958 4.03956
lowerneck -3.24014 -13.5343 -25.3114
upperneck 13.9021 -19.9172 21.8703
head 9.85218 -9.59858 9.23253
lclavicle 2.16427e-014 3.97569e-015
lhumerus -31.7268 18.1271 69.9014
lradius 23.0014
lwrist -4.10048
lhand -14.4731 31.649
lfingers 7.12502
lthumb 11.6729 61.3038
rclavicle 2.16427e-014 3.97569e-015
rhumerus -30.7933 -4.7829 -81.8206
rradius 30.2188
rwrist 1.13399
rhand -21.4064 12.9003
rfingers 7.12502
rthumb 4.98197 -17.0211
997
root 10.8806 17.8726 -31.6665 -5.09609 62.9668 1.87148
lfemur -6.28124 5.83721 -20.5365
ltibia 31.4732
lfoot -15.0281 0 0.48527
ltoes -20.0949
rfemur -14.4217 -13.9511 15.5025
rtibia 57.9712
rfoot -15.8515 0 -15.8645
rtoes -7.9522
lowerback 9.15137 0.808839 -5.98157
upperback 3.21211 0.643836 1.26982
thorax -1.85986 0.327036 4.62299
lowerneck -4.04726 -13.5732 -24.7971
upperneck 13.8243 -19.7748 21.5507
head 9.83493 -9.47396 9.00302
lclavicle 1.81391e-015 2.38542e-015
lhumerus -29.9385 15.7953 70.4232
lradius 23.9336
lwrist -1.58331
lhand -15.086 32.0944
lfingers 7.12502
lthumb 11.0818 61.7818
rclavicle 1.81391e-015 2.38542e-015
rhumerus -29.8853 -4.79161 -81.7603
rradius 30.8036
rwrist 1.52027
rhand -21.3003 13.478
rfingers 7.12502
rthumb 5.08443 -16.441
998
root 11.0212 17.8304 -31.6327 -4.78866 59.9965 1.73626
lfemur -5.87457 7.39884 -20.3148
ltibia 31.0637
lfoot -15.8488 0 2.16753
ltoes -20.9244
rfemur -14.6621 -15.8265 17.0856
rtibia 51.3824
rfoot -18.2287 0 -18.9537
rtoes -7.40675
lowerback 9.48316 1.11144 -5.63208
upperback 2.3995 1.00849 0.909818
thorax -2.92691 0.552357 3.99962
lowerneck -2.45631 -13.4971 -23.5534
upperneck 13.7203 -20.0865 21.5486
head 9.43881 -9.6556 8.84883
lclavicle -5.23052e-015 -3.97569e-015
lhumerus -30.0838 6.58423 71.3842
lradius 26.8491
lwrist 3.95634
lhand -13.8038 32.2889
lfingers 7.12502
lthumb 12.3183 61.9061
rclavicle -5.23052e-015 -3.97569e-015
rhumerus -32.0169 -7.57915 -81.5141
rradius 31.9906
rwrist 1.51021
rhand -21.3525 14.0899
rfingers 7.12502
rthumb 5.03396 -15.8303
999
root 11.1667 17.8048 -31.6372 -4.24219 57.1395 1.83709
lfemur -5.99556 7.9806 -20.5942
ltibia 31.7726
lfoot -16.3342 0 3.86759
ltoes -21.148
rfemur -15.0309 -20.2443 18.1891
rtibia 45.1129
rfoot -22.0614 0 -19.8991
rtoes 5.44746
lowerback 8.90779 0.772962 -5.64194
upperback 2.17169 0.587723 1.18922
thorax -2.80174 0.341497 4.35085
lowerneck -2.04634 -13.1496 -24.5895
upperneck 13.4192 -19.7064 22.2633
head 9.37481 -9.53241 9.38587
lclavicle -3.52346e-014 8.34896e-015
lhumerus -28.3363 11.2273 69.6123
lradius 25.1619
lwrist -1.67886
lhand -18.2185 38.0123
lfingers 7.12502
lthumb 8.05944 67.8386
rclavicle -3.52346e-014 8.34896e-015
rhumerus -32.4778 -7.62579 -81.0825
rradius 32.7602
rwrist 0.823636
rhand -20.6504 13.5534
rfingers 7.12502
rthumb 5.7119 -16.3497
1000
root 11.2769 17.8191 -31.591 -4.05808 54.5707 1.65884
lfemur -5.17456 8.77366 -20.2713
ltibia 31.8559
lfoot -16.7332 0 4.95458
ltoes -21.9611
rfemur -14.9918 -24.8813 20.0919
rtibia 41.366
rfoot -2.22054 0 -27.3961
rtoes -43.5452
lowerback 8.62328 0.629097 -5.56927
upperback 2.16983 0.423079 1.38512
thorax -2.6275 0.253069 4.53401
lowerneck -2.19835 -13.3686 -24.5664
upperneck 13.5904 -20.0396 22.2965
head 9.55223 -9.67502 9.31916
lclavicle 4.1546e-014 7.15625e-015
lhumerus -26.7609 10.128 69.5341
lradius 25.7268
lwrist -0.44873
lhand -14.3652 31.0017
lfingers 7.12502
lthumb 11.7769 60.6506
rclavicle 4.1546e-014 7.15625e-015
rhumerus -32.7556 -7.02868 -81.1784
rradius 33.0675
rwrist -0.174344
rhand -21.0964 13.1556
rfingers 7.12502
rthumb 5.28131 -16.7586
1001
root 11.3833 17.8466 -31.5761 -3.69837 51.0784 0.474339
lfemur -4.40352 9.50009 -19.0642
ltibia 31.2231
lfoot -16.9398 0 6.76308
ltoes -20.7869
rfemur -14.8482 -25.0374 22.5622
rtibia 39.523
rfoot 3.74537 0 -24.9191
rtoes -47.9848
lowerback 8.3188 0.739064 -3.9894
upperback 1.92307 0.723752 1.76212
thorax -2.74025 0.400731 3.9995
lowerneck -1.40254 -13.2675 -24.2238
upperneck 13.0869 -20.0258 22.3822
head 9.20022 -9.70719 9.33895
lclavicle -2.47487e-014 -9.93923e-015
lhumerus -25.6833 10.428 69.1159
lradius 26.1305
lwrist -0.915477
lhand -14.1835 30.6362
lfingers 7.12502
lthumb 11.9522 60.275
rclavicle -2.47487e-014 -9.93923e-015
rhumerus -33.2732 -8.036 -80.7331
rradius 32.4446
rwrist 0.636056
rhand -21.3129 13.5991
rfingers 7.12502
rthumb 5.07223 -16.3202
1002
root 11.4581 17.8279 -31.5627 -3.50732 47.6485 1.53236
lfemur -3.52916 8.82098 -20.4468
ltibia 30.6872
lfoot -17.3173 0 9.06442
ltoes -20.4945
rfemur -14.1176 -20.1474 21.1126
rtibia 39.0708
rfoot -1.02108 0 -26.466
rtoes -44.7355
lowerback 8.4039 1.06772 -4.82511
upperback 1.80551 1.07305 1.56179
thorax -2.95457 0.586033 4.22486
lowerneck -1.99733 -13.493 -23.7268
upperneck 13.377 -20.2629 22.0948
head 9.37427 -9.76371 9.0689
lclavicle 8.84095e-014 -3.97569e-016
lhumerus -24.581 11.3277 69.1591
lradius 26.8465
lwrist -0.51951
lhand -14.2322 30.4081
lfingers 7.12502
lthumb 11.9052 60.0496
rclavicle 8.84095e-014 -3.97569e-016
rhumerus -33.388 -8.75858 -80.4046
rradius 31.5748
rwrist 0.963244
rhand -19.087 13.0692
rfingers 7.12502
rthumb 7.22119 -16.7875
1003
root 11.5196 17.8377 -31.5467 -3.43729 44.9783 1.18644
lfemur -2.95676 8.84716 -20.331
ltibia 30.3473
lfoot -17.4103 0 11.3654
ltoes -20.9546
rfemur -13.7224 -19.3718 21.2409
rtibia 38.7149
rfoot -5.62697 0 -25.037
rtoes -40.8711
lowerback 8.71711 0.501141 -4.44155
upperback 1.76081 0.35993 2.13407
thorax -3.09845 0.234852 4.68714
lowerneck -3.17386 -13.2527 -24.1241
upperneck 13.8328 -19.6453 21.6712
head 9.57664 -9.44088 9.03471
lclavicle -6.13251e-014 1.23246e-014
lhumerus -24.7283 14.0826 69.5318
lradius 28.1876
lwrist 0.431575
lhand -15.5944 31.67
lfingers 7.12502
lthumb 10.5914 61.3831
rclavicle -6.13251e-014 1.23246e-014
rhumerus -32.6303 -8.23685 -79.8858
rradius 29.6912
rwrist 2.3877
rhand -19.1641 12.968
rfingers 7.12502
rthumb 7.14679 -16.8913
1004
root 11.589 17.8879 -31.466 -3.06992 43.0762 0.940138
lfemur -2.54377 9.1394 -20.0692
ltibia 29.8624
lfoot -16.5397 0 12.6986
ltoes -23.4024
rfemur -13.0398 -20.069 21.5435
rtibia 37.4246
rfoot -7.29941 0 -23.4433
rtoes -39.5113
lowerback 8.19762 0.10752 -4.38209
upperback 1.56674 -0.134143 2.39439
thorax -2.95423 -0.011999 4.97904
lowerneck -2.85915 -13.1219 -23.24
upperneck 13.084 -19.4677 21.5976
head 9.10842 -9.34618 8.90304
lclavicle 3.42407e-014 -2.38542e-014
lhumerus -24.8071 14.5214 70.3859
lradius 29.5684
lwrist 2.63289
lhand -15.8459 31.2419
lfingers 7.12502
lthumb 10.3488 60.9673
rclavicle 3.42407e-014 -2.38542e-014
rhumerus -32.2528 -9.61612 -78.8833
rradius 27.9999
rwrist 3.20148
rhand -19.4561 13.5409
rfingers 7.12502
rthumb 6.86487 -16.3278
